<svg xmlns="http://www.w3.org/2000/svg" xmlns:xlink="http://www.w3.org/1999/xlink" width="1080" zoomAndPan="magnify" viewBox="0 0 810 809.999993" height="1080" preserveAspectRatio="xMidYMid meet" version="1.0"><path fill="#f7f7f7" d="M 665.304688 145.117188 C 601.148438 80.976562 497.136719 80.976562 433 145.117188 L 341.34375 236.738281 C 348.597656 235.949219 355.929688 235.609375 363.296875 235.609375 C 386.496094 235.609375 409.050781 239.292969 430.40625 246.398438 L 482.34375 194.476562 C 500.183594 176.621094 523.90625 166.808594 549.132812 166.808594 C 574.363281 166.808594 598.085938 176.621094 615.921875 194.476562 C 633.761719 212.296875 643.574219 235.984375 643.574219 261.25 C 643.574219 286.476562 633.761719 310.199219 615.921875 328.019531 L 514.300781 429.640625 C 496.464844 447.5 472.742188 457.3125 447.511719 457.3125 C 422.246094 457.3125 398.5625 447.5 380.707031 429.640625 C 372.019531 420.996094 365.253906 410.917969 360.59375 399.941406 C 349.011719 400.578125 338.1875 405.390625 329.914062 413.660156 L 302.84375 440.765625 C 310.253906 454.488281 319.765625 467.421875 331.34375 479.042969 C 395.480469 543.183594 499.507812 543.183594 563.664062 479.042969 L 665.304688 377.382812 C 729.421875 313.246094 729.421875 209.253906 665.304688 145.117188 Z M 665.304688 145.117188 " fill-opacity="1" fill-rule="nonzero"/><path fill="#f7f7f7" d="M 448.601562 574.351562 C 425.367188 574.351562 402.585938 570.589844 380.742188 563.183594 L 328.449219 615.484375 C 310.628906 633.34375 286.90625 643.152344 261.679688 643.152344 C 236.453125 643.152344 212.765625 633.34375 194.90625 615.484375 C 177.050781 597.660156 167.238281 573.941406 167.238281 548.710938 C 167.238281 523.484375 177.050781 499.761719 194.90625 481.90625 L 296.527344 380.28125 C 314.386719 362.460938 338.074219 352.648438 363.300781 352.648438 C 388.5625 352.648438 412.25 362.460938 430.085938 380.28125 C 438.773438 388.96875 445.554688 399.042969 450.238281 410.019531 C 461.855469 409.417969 472.703125 404.570312 480.972656 396.300781 L 508.007812 369.230469 C 500.601562 355.46875 491.070312 342.535156 479.46875 330.917969 C 415.332031 266.78125 311.304688 266.78125 247.167969 330.917969 L 145.546875 432.578125 C 81.371094 496.722656 81.371094 600.707031 145.546875 664.882812 C 209.683594 729.027344 313.675781 729.027344 377.8125 664.882812 L 469.320312 573.375 C 462.496094 574.011719 455.597656 574.355469 448.640625 574.355469 Z M 448.601562 574.351562 " fill-opacity="1" fill-rule="nonzero"/></svg>